<svg version="1.2" xmlns="http://www.w3.org/2000/svg" viewBox="0 0 633 633" width="633" height="633">
	<path id="Layer" class="s0" d="m576.6 247.8c-0.1-35.2-12.2-69.3-34.4-96.7 7.5-31.3 5.2-64.2-6.7-94.1-2.4-5.8-7.2-10.2-13.1-12-8.4-2.9-40.2-8.3-105 33.7-27.9-7.3-56.6-10.8-85.4-10.3-28.9-0.5-57.7 3-85.6 10.3-66.5-42.9-101-36-108-33.9-6 1.9-10.8 6.4-13.1 12.2-11.9 29.8-14.3 62.6-6.9 93.8-22.9 27.3-35.1 61.9-34.4 97.5 0 132.7 76 172.8 145.6 186.9-3.6 8.8-6 17.9-7.3 27.3q-0.2 1.5 0 3v36.7c-63.4 5.3-76.9-31.8-78.3-36q-0.4-1.5-1-2.9c-12.3-24.9-33.8-44.1-60-53.4-7.2-2.4-15-0.8-20.6 4.2-5.6 5-8.2 12.6-6.7 19.9 1.5 7.4 6.8 13.4 13.9 15.8 14.6 5.2 26.7 15.6 34.1 29.1 8.4 27.3 42.7 70.3 118.3 65.5v34.6c0 7.5 4 14.4 10.5 18.2 6.5 3.7 14.5 3.7 21 0 6.5-3.8 10.5-10.7 10.5-18.2v-112c1.6-12.2 7-23.6 15.3-32.7 3.9-3.7 6.2-8.7 6.6-14 0.3-5.4-1.5-10.7-4.9-14.7-3.5-4.1-8.4-6.7-13.7-7.3-73.2-8.5-140.9-32.7-140.9-150.9-1-28.8 10.2-56.7 30.7-77 2.8-2.9 4.6-6.6 5.5-10.5 0.8-3.9 0.6-8-0.7-11.8-7.1-20.6-7.5-42.8-1.3-63.6 25.8 5.8 50 17.1 70.9 33.2 5.5 3.6 12.3 4.6 18.5 2.5 26.7-8.1 54.5-11.8 82.3-11.1 27.8-0.7 55.6 3 82.2 11.1 6.2 2.1 13 1.2 18.5-2.5 20.2-15.4 43.3-26.7 67.9-33 6.1 21.1 5.6 43.5-1.5 64.2-1.2 3.5-1.5 7.2-0.7 10.8 0.7 3.6 2.3 6.9 4.7 9.6 19.9 21.2 31.2 49.1 31.6 78.1 0 118-71.2 142.5-140.9 150.9-5.6 0.6-10.7 3.5-14.2 7.9-3.4 4.5-4.9 10.1-4.2 15.7 0.8 5.6 3.8 10.6 8.3 13.9 7.5 5.7 16.1 21.5 16.1 48v95.1c0 7.5 4 14.4 10.5 18.2 6.5 3.7 14.5 3.7 21 0 6.5-3.8 10.5-10.7 10.5-18.2v-95.1c0.2-16.7-2.8-33.3-9-48.8 56.4-12 143.5-49.1 143.5-187.2z"/>
</svg>